<?xml version="1.0" standalone="no"?>
<!DOCTYPE svg PUBLIC "-//W3C//DTD SVG 20010904//EN"
 "http://www.w3.org/TR/2001/REC-SVG-20010904/DTD/svg10.dtd">
<svg version="1.0" xmlns="http://www.w3.org/2000/svg"
 width="100.000000pt" height="100.000000pt" viewBox="0 0 100.000000 100.000000"
 preserveAspectRatio="xMidYMid meet">

<g transform="translate(0.000000,100.000000) scale(0.100000,-0.100000)"
fill="#000000" stroke="none">
<path d="M610 753 c-97 -41 -213 -130 -240 -182 -26 -51 -35 -127 -20 -179 13
-51 60 -108 82 -100 22 9 104 156 134 240 14 40 28 80 31 88 3 8 7 20 9 25 5
21 34 69 34 57 0 -12 -31 -136 -51 -202 -16 -51 -39 -107 -76 -177 l-32 -63
27 0 c45 0 127 45 158 86 25 33 29 47 32 119 4 72 -20 274 -34 297 -7 10 -12
10 -54 -9z"/>
<path d="M857 648 c-9 -6 -8 -8 3 -8 10 0 11 -3 3 -11 -9 -9 -16 -7 -29 5 -9
9 -21 15 -28 13 -19 -6 -76 -88 -69 -100 5 -8 8 -8 11 1 2 7 9 12 16 12 7 0
21 9 30 19 10 10 33 22 52 25 19 4 34 11 34 16 0 5 6 7 14 4 8 -3 17 -1 20 5
4 6 13 8 21 4 8 -3 15 -1 15 5 0 12 -76 21 -93 10z m-73 -47 c3 -5 -2 -15 -12
-22 -15 -12 -16 -12 -5 2 7 9 10 19 6 22 -3 4 -4 7 0 7 3 0 8 -4 11 -9z"/>
<path d="M930 614 c0 -5 -21 -20 -46 -33 -38 -21 -44 -28 -40 -47 4 -13 2 -26
-4 -29 -6 -4 -10 5 -10 19 0 34 -18 33 -26 0 -5 -18 -10 -22 -17 -15 -6 6 -16
11 -21 11 -6 0 -2 -7 8 -15 40 -31 105 -10 90 29 -4 11 -1 16 12 15 11 0 14
-3 6 -6 -6 -2 -9 -9 -6 -14 3 -5 14 1 23 13 26 34 43 69 37 76 -3 3 -6 1 -6
-4z"/>
</g>
</svg>
